<svg width="59" height="60" viewBox="0 0 59 60" fill="none" xmlns="http://www.w3.org/2000/svg">
<path fill-rule="evenodd" clip-rule="evenodd" d="M33.3424 10.1333C37.2734 5.6385 58.2949 0 58.2949 0C58.2949 0 54.7216 22.4843 51.5769 26.0802C49.3525 28.6237 42.5102 27.2414 38.6962 26.2148C37.0218 28.8661 35.6061 31.8018 34.8661 34.8644C34.6111 35.9204 33.4793 36.4449 32.3384 36.0356C31.1975 35.6263 30.4794 34.4384 30.7345 33.3825C31.5892 29.8446 33.2018 26.5339 35.0544 23.6166C33.3645 20.3477 30.41 13.4864 33.3424 10.1333ZM9.64853 38.3806H0.266571V59.49H9.64853V55.8316C11.1665 55.7794 12.7472 55.7385 13.4198 55.765C16.6367 55.8922 19.0391 56.6414 21.468 57.399C23.734 58.1058 26.0234 58.8199 29.019 59.0427C29.7719 59.0985 30.5044 59.1709 31.2146 59.2409C33.7798 59.4938 36.0535 59.718 37.9328 59.0427C40.3327 58.1801 54.0463 51.625 55.7606 49.9C57.4747 48.175 56.6176 43.5173 51.3036 44.3799C48.6815 44.8054 45.6421 46.0291 42.8854 47.1387C40.0554 48.2781 37.5234 49.2973 36.0471 49.2099C33.1331 49.0374 25.4191 47.6574 25.4191 47.6574L34.276 47.7626C34.276 47.7626 35.5273 47.8279 37.2471 46.6225C38.9669 45.4172 40.5041 41.9648 37.9328 41.9648C35.3615 41.9648 32.6188 41.1024 32.6188 41.1024L21.6479 38.6873C21.6479 38.6873 17.8766 37.9972 16.3339 38.6873C15.355 39.125 11.983 40.3267 9.64853 41.1467V38.3806ZM7.34857 8.61108C7.34857 8.61108 22.9505 12.8399 25.8678 16.211C27.896 18.5547 26.1298 23.1833 24.8647 25.787C26.3871 28.2934 27.7214 31.0275 28.5859 33.8771C28.8949 34.8951 28.328 35.9746 27.3199 36.2881C26.3117 36.6017 25.2441 36.0304 24.9352 35.0124C24.2307 32.6903 23.1518 30.4155 21.8885 28.2737C19.0566 29.0436 13.9844 30.0776 12.3346 28.1712C10.0007 25.4744 7.34857 8.61108 7.34857 8.61108ZM37.771 22.9764C36.9013 22.3705 36.6873 21.1746 37.2931 20.3049C40.7365 15.3611 43.4728 12.1598 45.3752 10.1751C46.3266 9.18257 47.07 8.49383 47.5893 8.04362C47.8492 7.81833 48.053 7.65272 48.1986 7.53854C48.2716 7.48135 48.3301 7.43721 48.3736 7.40478L48.4281 7.36486L48.447 7.35124L48.4544 7.34606L48.4575 7.34394C48.4583 7.34356 48.4602 7.34183 49.5556 8.90124L48.4602 7.34183C49.3276 6.73273 50.5245 6.94191 51.1336 7.80912C51.7408 8.67364 51.5351 9.86536 50.6751 10.4764L50.6619 10.4862C50.645 10.4986 50.6128 10.523 50.5656 10.5601C50.471 10.6339 50.3165 10.7591 50.1036 10.9435C49.678 11.3123 49.02 11.9191 48.1459 12.831C46.3974 14.6551 43.7858 17.6985 40.4425 22.4985C39.8366 23.3681 38.6407 23.582 37.771 22.9764ZM22.7475 23.1811C23.3497 24.0547 23.1363 25.2572 22.2706 25.8668C21.4051 26.4763 20.2153 26.2623 19.6131 25.3886C17.829 22.8002 16.4459 21.1744 15.5357 20.2149C15.0809 19.7353 14.7445 19.4227 14.5357 19.2398C14.4315 19.1483 14.359 19.0894 14.3196 19.0581C14.3018 19.0441 14.2907 19.0357 14.2864 19.0324C13.4369 18.4171 13.2358 17.2231 13.8391 16.3563C14.4461 15.4843 15.6371 15.2736 16.4993 15.8856L15.405 17.4574C16.4993 15.8856 16.4985 15.885 16.4993 15.8856L16.502 15.8875L16.5048 15.8896L16.5112 15.894L16.526 15.9048L16.5645 15.9333C16.5943 15.9556 16.6317 15.9844 16.677 16.0203C16.7674 16.0917 16.8887 16.1915 17.0395 16.3237C17.3415 16.5883 17.7626 16.9831 18.2942 17.5436C19.3571 18.6641 20.8639 20.4484 22.7475 23.1811Z" fill="#219D80"/>
</svg>
