<svg width="66" height="59" viewBox="0 0 66 59" fill="none" xmlns="http://www.w3.org/2000/svg">
<path d="M31.059 16.5344L37.2774 18.1729C37.4886 18.2223 37.6776 18.3401 37.8149 18.5079C37.9523 18.6757 38.0304 18.8843 38.0371 19.101C38.0371 19.6281 37.5684 20.0635 36.9921 20.0635H32.9129C32.4733 20.0623 32.0381 19.9767 31.6307 19.8115C31.0303 19.5594 30.3382 19.6167 29.8776 20.0406L27.7005 22.0458C27.5998 22.134 27.5129 22.2367 27.4427 22.3506C27.3528 22.4981 27.293 22.6618 27.2667 22.8325C27.2404 23.0031 27.2482 23.1773 27.2895 23.345C27.3308 23.5126 27.4049 23.6704 27.5075 23.8093C27.6101 23.9482 27.7392 24.0654 27.8873 24.1542C29.093 24.8777 30.4429 25.3276 31.8416 25.4719V27.5C31.8416 28.5083 32.7388 29.3333 33.8319 29.3333H35.8222C36.9165 29.3333 37.8136 28.5083 37.8136 27.5V25.4833C41.5869 25.0708 44.4411 21.9312 43.9439 18.2646C43.5829 15.6292 41.3703 13.5323 38.6089 12.799L32.3904 11.1604C32.1792 11.111 31.9903 10.9933 31.8529 10.8254C31.7155 10.6576 31.6374 10.4491 31.6307 10.2323C31.6307 9.70521 32.0994 9.26979 32.6757 9.26979H36.7549C37.196 9.27048 37.6329 9.35606 38.0417 9.52187C38.6409 9.77396 39.3342 9.71667 39.7948 9.29271L41.9719 7.2875C42.0692 7.20124 42.1531 7.1008 42.2205 6.98958C42.3112 6.8422 42.3717 6.67831 42.3987 6.50739C42.4256 6.33647 42.4184 6.16191 42.3775 5.99379C42.3366 5.82566 42.2628 5.66731 42.1603 5.52788C42.0578 5.38845 41.9288 5.27071 41.7805 5.18146C40.5744 4.4579 39.2242 4.00807 37.8251 3.86375V1.83333C37.8251 0.825 36.9291 0 35.8348 0H33.8445C32.7502 0 31.8542 0.825 31.8542 1.83333V3.85C28.0855 4.2625 25.2255 7.40208 25.7228 11.0687C26.0826 13.7042 28.3021 15.801 31.059 16.5344ZM64.7705 37.5948C63.4184 36.3687 61.3101 36.449 59.8893 37.5948L49.3018 46.0625C48.0021 47.1051 46.3846 47.6713 44.7184 47.6667H31.1667C30.6804 47.6667 30.2141 47.4735 29.8703 47.1297C29.5265 46.7859 29.3333 46.3196 29.3333 45.8333C29.3333 45.3471 29.5265 44.8808 29.8703 44.537C30.2141 44.1932 30.6804 44 31.1667 44H40.1374C41.9593 44 43.6563 42.751 43.9473 40.9521C43.9832 40.7455 44.0008 40.5361 44 40.3265C43.9982 39.3552 43.6111 38.4243 42.9236 37.7382C42.2362 37.052 41.3046 36.6667 40.3333 36.6667H22C18.9081 36.6675 15.9104 37.731 13.5094 39.6791L8.18125 44H1.83333C1.3471 44 0.880788 44.1932 0.536971 44.537C0.193154 44.8808 0 45.3471 0 45.8333L0 56.8333C0 57.3196 0.193154 57.7859 0.536971 58.1297C0.880788 58.4735 1.3471 58.6667 1.83333 58.6667H42.7132C44.3789 58.668 45.9953 58.1022 47.2966 57.0625L64.625 43.1979C65.0418 42.8645 65.3809 42.4441 65.6184 41.9661C65.8559 41.4881 65.9862 40.964 66.0002 40.4304C66.0141 39.8968 65.9114 39.3666 65.6992 38.8769C65.4871 38.3871 65.1705 37.9495 64.7717 37.5948H64.7705Z" fill="#219D80"/>
</svg>
